<?xml version="1.0" standalone="no"?><!DOCTYPE svg PUBLIC "-//W3C//DTD SVG 1.1//EN" "http://www.w3.org/Graphics/SVG/1.1/DTD/svg11.dtd"><svg t="1602743385305" class="icon" viewBox="0 0 1102 1024" version="1.1" xmlns="http://www.w3.org/2000/svg" p-id="5308" xmlns:xlink="http://www.w3.org/1999/xlink" width="34.4375" height="32"><defs><style type="text/css"></style></defs><path d="M850.707692 599.473231l138.673231-141.902769a9.019077 9.019077 0 0 1 15.399385 5.55323c1.851077 17.132308 2.756923 34.500923 2.756923 52.145231 0 263.483077-208.738462 477.105231-466.313846 477.105231a458.043077 458.043077 0 0 1-300.504616-112.403692 9.373538 9.373538 0 0 1-0.472615-13.587693l91.844923-93.932307a8.861538 8.861538 0 0 1 11.972923-0.669539 313.028923 313.028923 0 0 0 197.159385 69.986462c146.116923 0 269.508923-101.021538 307.2-238.355693a9.058462 9.058462 0 0 1 2.244923-3.938461zM231.739077 431.025231l-138.712615 141.902769a9.019077 9.019077 0 0 1-15.36-5.513846c-1.851077-17.132308-2.796308-34.540308-2.796308-52.145231 0-263.483077 208.777846-477.105231 466.313846-477.105231a458.043077 458.043077 0 0 1 300.504615 112.364308 9.373538 9.373538 0 0 1 0.472616 13.587692l-91.844923 93.971693a8.861538 8.861538 0 0 1-11.972923 0.630153 313.028923 313.028923 0 0 0-197.159385-69.947076c-146.116923 0-269.508923 100.982154-307.2 238.316307a9.058462 9.058462 0 0 1-2.244923 3.938462z m237.489231 237.528615c-7.207385-1.260308-10.043077-10.397538-4.844308-15.714461L1061.297231 42.180923c5.710769-5.868308 15.478154-1.732923 15.478154 6.577231v215.197538a9.373538 9.373538 0 0 1-2.63877 6.537846L656.620308 697.659077a8.940308 8.940308 0 0 1-7.955693 2.599385l-179.357538-31.704616zM613.218462 361.944615c7.246769 1.260308 10.082462 10.397538 4.883692 15.714462L21.149538 988.278154c-5.710769 5.868308-15.478154 1.732923-15.478153-6.537846v-215.197539c0-2.481231 0.945231-4.844308 2.678153-6.577231l417.476924-427.165538a8.940308 8.940308 0 0 1 7.955692-2.56l179.396923 31.665231z" fill="#ffffff" p-id="5309"></path></svg>